<?xml version="1.0" encoding="UTF-8" standalone="no"?><!DOCTYPE svg PUBLIC "-//W3C//DTD SVG 1.1//EN" "http://www.w3.org/Graphics/SVG/1.1/DTD/svg11.dtd"><svg width="100%" height="100%" viewBox="0 0 463 922" version="1.1" xmlns="http://www.w3.org/2000/svg" xmlns:xlink="http://www.w3.org/1999/xlink" xml:space="preserve" xmlns:serif="http://www.serif.com/" style="fill-rule:evenodd;clip-rule:evenodd;stroke-linecap:round;stroke-linejoin:round;stroke-miterlimit:1.5;"><path d="M133.595,-0c26.813,18.817 51.707,41.174 74.758,66.932c12.089,16.525 21.529,35.285 28.916,55.777c2.278,29.742 -0.397,54.915 -5.642,77.716c-29.581,-42.873 -55.624,-88.233 -79.695,-134.98c6.326,26.968 22.254,65.382 70.868,142.759c17.886,29.904 33.316,57.736 42.013,79.888c8.984,23.733 20.092,46.856 20.276,73.12l19.836,-73.12c11.167,-32.049 26.301,-63.401 44.52,-94.21c-29.119,25.685 -51.264,72.035 -62.751,120.031c-5.244,-25.321 -6.205,-56.287 -2.045,-94.002c20.595,-50.715 57.711,-73.556 101.823,-84.595c4.796,27.837 4.11,54.025 0.441,79.482c-7.841,20.11 -15.896,39.87 -28.599,54.085c-28.054,31.395 -47.519,46.781 -65.731,94.597c4.407,32.995 1.901,24.291 3.473,51.073c5.116,15.61 5.488,52.65 5.078,78.236c-4.123,42.074 -15.126,86.475 -18.619,122.262c37.437,-46.26 81.429,-98.634 117.356,-137.731c-16.255,1.063 -46.843,34.436 -87.171,86.268c-0.626,-28.036 4.78,-50.2 13.934,-68.717c40.687,-65.586 88.975,-67.542 135.865,-72.882c-2.543,28.099 -7.57,55.699 -25.954,80.616c-32.944,41.216 -68.05,66.471 -105.508,74.369c-21.473,14.162 -35.329,32.341 -46.266,52.058c-30.016,64.014 -49.212,123.897 -92.074,174.468c-54.261,64.018 -96.515,89.468 -96.515,89.468c-87.34,44.349 -93.306,28.922 -96.184,11.228c81.628,-5.511 159.781,-73.574 199.204,-147.622c4.868,-16.486 5.581,-36.131 0,-59.495c-17.281,-29.76 -39.224,-54.029 -53.214,-77.715c-15.017,-32.757 -23.43,-84.627 -18.69,-110.438c39.831,2.464 69.016,26.168 90.979,58.38c21.521,56.224 13.108,88.976 -2.116,116.387c-2.689,-51.774 -16.946,-95.492 -49.721,-120.478c34.354,65.237 46.638,130.864 47.236,183.197c31.367,-53.322 50.579,-119.587 63.138,-185.8c7.173,-24.046 7.755,-48.092 1.763,-72.138c-9.567,-31.027 -26.049,-53.305 -49.721,-66.484c-23.794,-16.83 -56.606,-15.225 -77.579,-24.99c-21.802,-7.774 -41.555,-26.435 -65.237,-58.008c-14.315,-27.61 -26.592,-49.49 -38.084,-69.163c48.87,-18.095 104.154,-8.303 142.817,18.263c31.185,22.846 51.331,61.768 62.769,113.37c-38.132,-48.65 -82.116,-83.727 -134.353,-99.654c28.808,23.823 65.948,42.444 76.469,55.842c50.057,41.531 83.765,92.733 94.506,128.212c-1.073,-42.589 -4.755,-84.929 -14.105,-126.725c-14.423,-54.924 -37.015,-105.713 -70.245,-151.118c-18.835,-8.209 -38.809,-22.728 -60.653,-47.596c-14.858,-18.807 -26.11,-63.493 -25.672,-78.682c0.673,-23.315 5.948,-46.156 14.105,-81.741Z" style="fill:#014e37;stroke:#014e37;stroke-width:0.83px;"/></svg>