<?xml version="1.0" encoding="UTF-8" standalone="no"?><!DOCTYPE svg PUBLIC "-//W3C//DTD SVG 1.1//EN" "http://www.w3.org/Graphics/SVG/1.1/DTD/svg11.dtd"><svg width="100%" height="100%" viewBox="0 0 950 128" version="1.1" xmlns="http://www.w3.org/2000/svg" xmlns:xlink="http://www.w3.org/1999/xlink" xml:space="preserve" xmlns:serif="http://www.serif.com/" style="fill-rule:evenodd;clip-rule:evenodd;stroke-linecap:round;stroke-linejoin:round;stroke-miterlimit:1.5;"><g transform="matrix(100,0,0,100,885.121069,97.984375)"></g><text x="64.613px" y="97.984px" style="font-family:'Calibri-Bold', 'Calibri', sans-serif;font-weight:700;font-size:100px;fill:#014e37;">Esse<tspan x="241.957px 287.904px " y="97.984px 97.984px ">x </tspan>Gar<tspan x="457.924px 511.586px " y="97.984px 97.984px ">de</tspan>ns T<tspan x="722.475px 758.021px 811.684px 850.453px " y="97.984px 97.984px 97.984px 97.984px ">rust</tspan></text><clipPath id="_clip1"><rect x="-0.078" y="0" width="64.278" height="128"/></clipPath><g clip-path="url(#_clip1)"><path d="M45.43,0c-3.71,2.612 -7.154,5.716 -10.344,9.292c-1.673,2.294 -2.979,4.899 -4.001,7.743c-0.315,4.129 0.055,7.624 0.781,10.789c4.093,-5.952 7.696,-12.249 11.027,-18.739c-0.875,3.744 -3.079,9.077 -9.805,19.819c-2.475,4.152 -4.61,8.015 -5.813,11.091c-1.243,3.295 -2.78,6.505 -2.805,10.151l-2.745,-10.151c-1.545,-4.449 -3.639,-8.802 -6.16,-13.079c4.029,3.566 7.093,10.001 8.682,16.664c0.726,-3.515 0.859,-7.814 0.283,-13.05c-2.849,-7.041 -7.985,-10.212 -14.088,-11.744c-0.663,3.865 -0.569,7.5 -0.061,11.034c1.085,2.792 2.199,5.535 3.957,7.509c3.882,4.359 6.575,6.495 9.095,13.133c-0.61,4.581 -0.263,3.372 -0.481,7.09c-0.708,2.167 -0.759,7.309 -0.703,10.861c0.57,5.841 2.093,12.005 2.576,16.973c-5.18,-6.422 -11.266,-13.693 -16.237,-19.121c2.249,0.148 6.481,4.781 12.061,11.976c0.087,-3.892 -0.661,-6.969 -1.928,-9.54c-5.63,-9.105 -12.31,-9.377 -18.798,-10.118c0.352,3.901 1.047,7.733 3.591,11.192c4.558,5.722 9.415,9.228 14.598,10.325c2.971,1.966 4.888,4.49 6.401,7.227c4.153,8.887 6.809,17.2 12.739,24.221c7.507,8.888 13.354,12.421 13.354,12.421c12.084,6.157 12.91,4.015 13.308,1.559c-11.294,-0.765 -22.107,-10.214 -27.562,-20.494c-0.674,-2.289 -0.772,-5.016 0,-8.26c2.391,-4.132 5.427,-7.501 7.363,-10.789c2.078,-4.548 3.242,-11.749 2.586,-15.332c-5.511,0.342 -9.549,3.633 -12.588,8.105c-2.978,7.806 -1.814,12.352 0.293,16.158c0.372,-7.188 2.345,-13.257 6.879,-16.726c-4.753,9.057 -6.453,18.168 -6.536,25.433c-4.34,-7.403 -6.998,-16.602 -8.736,-25.794c-0.992,-3.338 -1.073,-6.677 -0.244,-10.015c1.324,-4.307 3.604,-7.4 6.879,-9.23c3.292,-2.336 7.832,-2.114 10.734,-3.469c3.016,-1.079 5.749,-3.67 9.026,-8.053c1.981,-3.833 3.679,-6.871 5.269,-9.602c-6.762,-2.512 -14.411,-1.153 -19.76,2.535c-4.315,3.172 -7.102,8.575 -8.685,15.739c5.276,-6.754 11.361,-11.624 18.589,-13.835c-3.986,3.307 -9.125,5.892 -10.58,7.752c-6.926,5.766 -11.59,12.874 -13.076,17.799c0.149,-5.913 0.658,-11.791 1.952,-17.593c1.996,-7.625 5.121,-14.676 9.719,-20.98c2.606,-1.14 5.37,-3.155 8.392,-6.608c2.056,-2.611 3.613,-8.815 3.552,-10.923c-0.093,-3.237 -0.823,-6.408 -1.952,-11.348l0,0Z" style="fill:#014e37;stroke:#014e37;stroke-width:0.12px;"/></g><clipPath id="_clip2"><rect x="885.534" y="0" width="64.278" height="128"/></clipPath><g clip-path="url(#_clip2)"><path d="M904.081,0c3.722,2.612 7.178,5.716 10.379,9.292c1.678,2.294 2.989,4.899 4.014,7.743c0.316,4.129 -0.055,7.624 -0.783,10.789c-4.107,-5.952 -7.722,-12.249 -11.064,-18.739c0.878,3.744 3.089,9.077 9.839,19.819c2.483,4.152 4.625,8.015 5.833,11.091c1.247,3.295 2.789,6.505 2.815,10.151l2.754,-10.151c1.55,-4.449 3.651,-8.802 6.181,-13.079c-4.043,3.566 -7.117,10.001 -8.712,16.664c-0.728,-3.515 -0.861,-7.814 -0.284,-13.05c2.859,-7.041 8.012,-10.212 14.136,-11.744c0.666,3.865 0.571,7.5 0.061,11.034c-1.089,2.792 -2.207,5.535 -3.97,7.509c-3.895,4.359 -6.597,6.495 -9.125,13.133c0.612,4.581 0.264,3.372 0.482,7.09c0.71,2.167 0.762,7.309 0.705,10.861c-0.572,5.841 -2.1,12.005 -2.585,16.973c5.197,-6.422 11.305,-13.693 16.292,-19.121c-2.257,0.148 -6.503,4.781 -12.102,11.976c-0.087,-3.892 0.664,-6.969 1.934,-9.54c5.649,-9.105 12.352,-9.377 18.862,-10.118c-0.353,3.901 -1.051,7.733 -3.603,11.192c-4.574,5.722 -9.447,9.228 -14.648,10.325c-2.981,1.966 -4.905,4.49 -6.423,7.227c-4.167,8.887 -6.832,17.2 -12.783,24.221c-7.533,8.888 -13.399,12.421 -13.399,12.421c-12.125,6.157 -12.954,4.015 -13.353,1.559c11.332,-0.765 22.182,-10.214 27.655,-20.494c0.676,-2.289 0.775,-5.016 0,-8.26c-2.399,-4.132 -5.445,-7.501 -7.388,-10.789c-2.085,-4.548 -3.253,-11.749 -2.595,-15.332c5.53,0.342 9.581,3.633 12.63,8.105c2.988,7.806 1.82,12.352 -0.294,16.158c-0.373,-7.188 -2.353,-13.257 -6.903,-16.726c4.769,9.057 6.475,18.168 6.558,25.433c4.355,-7.403 7.022,-16.602 8.765,-25.794c0.996,-3.338 1.077,-6.677 0.245,-10.015c-1.328,-4.307 -3.616,-7.4 -6.903,-9.23c-3.303,-2.336 -7.859,-2.114 -10.77,-3.469c-3.027,-1.079 -5.769,-3.67 -9.057,-8.053c-1.987,-3.833 -3.692,-6.871 -5.287,-9.602c6.785,-2.512 14.46,-1.153 19.827,2.535c4.329,3.172 7.126,8.575 8.714,15.739c-5.294,-6.754 -11.4,-11.624 -18.652,-13.835c3.999,3.307 9.155,5.892 10.616,7.752c6.949,5.766 11.629,12.874 13.12,17.799c-0.149,-5.913 -0.66,-11.791 -1.958,-17.593c-2.002,-7.625 -5.139,-14.676 -9.752,-20.98c-2.615,-1.14 -5.388,-3.155 -8.42,-6.608c-2.063,-2.611 -3.625,-8.815 -3.564,-10.923c0.093,-3.237 0.826,-6.408 1.958,-11.348l0,0Z" style="fill:#014e37;stroke:#014e37;stroke-width:0.12px;"/></g></svg>