<?xml version="1.0" encoding="UTF-8" standalone="no"?><!DOCTYPE svg PUBLIC "-//W3C//DTD SVG 1.1//EN" "http://www.w3.org/Graphics/SVG/1.1/DTD/svg11.dtd"><svg width="100%" height="100%" viewBox="0 0 64 64" version="1.1" xmlns="http://www.w3.org/2000/svg" xmlns:xlink="http://www.w3.org/1999/xlink" xml:space="preserve" xmlns:serif="http://www.serif.com/" style="fill-rule:evenodd;clip-rule:evenodd;stroke-linejoin:round;stroke-miterlimit:2;"><path d="M19.578,42.737l-16.011,0l0,-21.475l15.513,0l0,2.549l-12.671,0l0,6.562l11.851,0l0,2.549l-11.851,0l0,7.266l13.169,0l0,2.549Z" style="fill-rule:nonzero;"/><path d="M32.967,43.104c-3.086,0 -5.588,-1.011 -7.507,-3.032c-1.919,-2.021 -2.878,-4.712 -2.878,-8.071c0,-3.369 0.947,-6.062 2.842,-8.079c1.895,-2.017 4.38,-3.025 7.456,-3.025c2.588,0 4.739,0.623 6.453,1.868c1.714,1.245 2.673,2.913 2.878,5.002l-2.944,0c-0.117,-1.387 -0.742,-2.473 -1.875,-3.259c-1.133,-0.786 -2.627,-1.179 -4.482,-1.179c-2.217,0 -4.001,0.757 -5.354,2.271c-1.353,1.514 -2.029,3.647 -2.029,6.401c0,2.744 0.684,4.875 2.051,6.394c1.367,1.519 3.154,2.278 5.361,2.278c3.096,0 5.396,-1.021 6.899,-3.062l0,-3.267l-5.669,0l0,-2.563l8.423,0l0,10.957l-2.007,0l-0.747,-2.256c-1.455,1.748 -3.745,2.622 -6.87,2.622Z" style="fill-rule:nonzero;"/><path d="M62.176,23.812l-7.104,0l0,18.926l-2.856,0l0,-18.926l-7.046,0l0,-2.549l17.007,0l0,2.549Z" style="fill-rule:nonzero;"/></svg>