<?xml version="1.0" encoding="UTF-8" standalone="no"?><!DOCTYPE svg PUBLIC "-//W3C//DTD SVG 1.1//EN" "http://www.w3.org/Graphics/SVG/1.1/DTD/svg11.dtd"><svg width="100%" height="100%" viewBox="0 0 463 922" version="1.1" xmlns="http://www.w3.org/2000/svg" xmlns:xlink="http://www.w3.org/1999/xlink" xml:space="preserve" xmlns:serif="http://www.serif.com/" style="fill-rule:evenodd;clip-rule:evenodd;stroke-linecap:round;stroke-linejoin:round;stroke-miterlimit:1.5;"><path d="M327.794,-0c-26.722,18.817 -51.532,41.174 -74.506,66.932c-12.048,16.525 -21.456,35.285 -28.818,55.777c-2.27,29.742 0.395,54.915 5.623,77.716c29.481,-42.873 55.436,-88.233 79.426,-134.98c-6.305,26.968 -22.178,65.382 -70.629,142.759c-17.825,29.904 -33.203,57.736 -41.871,79.888c-8.954,23.733 -20.024,46.856 -20.208,73.12l-19.769,-73.12c-11.129,-32.049 -26.212,-63.401 -44.37,-94.21c29.021,25.685 51.091,72.035 62.539,120.031c5.226,-25.321 6.184,-56.287 2.038,-94.002c-20.525,-50.715 -57.516,-73.556 -101.479,-84.595c-4.779,27.837 -4.096,54.025 -0.439,79.482c7.814,20.11 15.843,39.87 28.502,54.085c27.959,31.395 47.358,46.781 65.509,94.597c-4.392,32.995 -1.895,24.291 -3.462,51.073c-5.099,15.61 -5.47,52.65 -5.061,78.236c4.109,42.074 15.075,86.475 18.556,122.262c-37.311,-46.26 -81.154,-98.634 -116.96,-137.731c16.2,1.063 46.685,34.436 86.877,86.268c0.624,-28.036 -4.764,-50.2 -13.887,-68.717c-40.55,-65.586 -88.674,-67.542 -135.406,-72.882c2.534,28.099 7.544,55.699 25.866,80.616c32.833,41.216 67.82,66.471 105.152,74.369c21.401,14.162 35.21,32.341 46.109,52.058c29.915,64.014 49.045,123.897 91.763,174.468c54.077,64.018 96.189,89.468 96.189,89.468c87.045,44.349 92.991,28.922 95.859,11.228c-81.353,-5.511 -159.241,-73.574 -198.531,-147.622c-4.852,-16.486 -5.562,-36.131 0,-59.495c17.223,-29.76 39.092,-54.029 53.034,-77.715c14.966,-32.757 23.351,-84.627 18.626,-110.438c-39.696,2.464 -68.783,26.168 -90.672,58.38c-21.448,56.224 -13.064,88.976 2.109,116.387c2.679,-51.774 16.888,-95.492 49.553,-120.478c-34.237,65.237 -46.48,130.864 -47.077,183.197c-31.261,-53.322 -50.408,-119.587 -62.925,-185.8c-7.149,-24.046 -7.729,-48.092 -1.757,-72.138c9.535,-31.027 25.961,-53.305 49.553,-66.484c23.714,-16.83 56.415,-15.225 77.317,-24.99c21.728,-7.774 41.414,-26.435 65.017,-58.008c14.266,-27.61 26.502,-49.49 37.956,-69.163c-48.705,-18.095 -103.802,-8.303 -142.334,18.263c-31.08,22.846 -51.158,61.768 -62.557,113.37c38.004,-48.65 81.838,-83.727 133.9,-99.654c-28.711,23.823 -65.725,42.444 -76.21,55.842c-49.888,41.531 -83.482,92.733 -94.187,128.212c1.07,-42.589 4.739,-84.929 14.058,-126.725c14.374,-54.924 36.89,-105.713 70.007,-151.118c18.771,-8.209 38.678,-22.728 60.448,-47.596c14.808,-18.807 26.022,-63.493 25.585,-78.682c-0.671,-23.315 -5.928,-46.156 -14.058,-81.741Z" style="fill:#014e37;stroke:#014e37;stroke-width:0.83px;"/></svg>