<?xml version="1.0" encoding="iso-8859-1"?>
<!-- Generator: Adobe Illustrator 23.0.6, SVG Export Plug-In . SVG Version: 6.00 Build 0)  -->
<svg version="1.1" id="Layer_1" xmlns="http://www.w3.org/2000/svg" xmlns:xlink="http://www.w3.org/1999/xlink" x="0px" y="0px"
	 viewBox="0 0 32 32" style="enable-background:new 0 0 32 32;" xml:space="preserve">
<path style="fill:none;stroke:#000000;stroke-width:2;stroke-miterlimit:10;" d="M24,18c1.105,0,2-0.895,2-2s-0.895-2-2-2H8
	c-1.105,0-2,0.895-2,2s0.895,2,2,2H24z"/>
<path style="fill:none;stroke:#000000;stroke-width:2;stroke-miterlimit:10;" d="M8,10c-1.105,0-2-0.895-2-2s0.895-2,2-2h16
	c1.105,0,2,0.895,2,2s-0.895,2-2,2H8z"/>
<path style="fill:none;stroke:#000000;stroke-width:2;stroke-miterlimit:10;" d="M24,26c1.105,0,2-0.895,2-2s-0.895-2-2-2H8
	c-1.105,0-2,0.895-2,2s0.895,2,2,2H24z"/>
</svg>